<svg width="500" height="500" viewBox="0 0 500 500" fill="none" xmlns="http://www.w3.org/2000/svg">
  <g id="Logo">
    <path id="Marc"
      d="M209.47 242.851C209.188 245.712 208.435 248.117 207.213 250.067C205.989 252.148 204.579 253.579 202.98 254.359C201.381 255.139 199.734 255.139 198.041 254.359C196.348 253.708 194.937 252.018 193.808 249.287C192.868 247.077 192.303 244.801 192.115 242.46C192.021 239.99 191.88 237.454 191.692 234.853C191.504 231.992 191.269 229.522 190.986 227.442C190.798 225.231 190.563 222.696 190.281 219.835C189.434 212.033 188.494 204.36 187.459 196.819C186.424 189.146 185.249 181.474 183.932 173.803C182.05 180.304 180.262 186.741 178.57 193.112C176.877 199.484 175.184 205.92 173.49 212.422C172.173 217.234 170.856 222.11 169.539 227.051C168.316 231.863 166.859 236.543 165.166 241.095C164.601 242.656 163.66 243.956 162.343 244.996C161.027 245.906 159.615 246.426 158.11 246.557C156.605 246.686 155.194 246.426 153.877 245.776C152.56 244.996 151.573 243.761 150.914 242.071C146.869 231.277 142.872 220.549 138.921 209.887C134.97 199.224 131.019 188.496 127.068 177.703C126.598 184.335 126.175 191.031 125.799 197.793C125.422 204.426 124.999 211.057 124.529 217.688C124.435 219.769 124.341 222.305 124.247 225.295C124.152 228.287 123.964 231.343 123.682 234.464C123.494 237.454 123.212 240.38 122.836 243.24C122.553 245.972 122.036 248.117 121.283 249.678C120.155 252.278 118.65 253.968 116.768 254.748C114.981 255.529 113.194 255.593 111.407 254.944C109.713 254.293 108.255 252.928 107.032 250.847C105.904 248.897 105.386 246.361 105.48 243.24C105.669 237.909 105.998 232.643 106.468 227.442C106.938 222.24 107.362 216.974 107.738 211.642C108.491 200.069 109.243 188.561 109.996 177.118C110.842 165.676 111.642 154.102 112.394 142.399C112.582 139.019 113.053 135.898 113.805 133.037C114.652 130.176 116.392 128.16 119.026 126.991C120.061 126.47 121.142 126.275 122.271 126.405C123.4 126.535 124.435 126.991 125.375 127.771C127.445 129.591 129.044 132.126 130.173 135.378C131.395 138.499 132.524 141.489 133.559 144.35C135.346 149.031 137.086 153.777 138.78 158.588C140.473 163.269 142.166 167.951 143.859 172.632C145.929 178.614 147.998 184.531 150.068 190.382C152.231 196.103 154.442 201.89 156.699 207.741C157.264 205.791 157.781 203.84 158.251 201.89C158.816 199.94 159.38 197.989 159.945 196.039C160.98 192.658 161.92 189.277 162.767 185.896C163.707 182.384 164.648 178.938 165.589 175.557C166.906 171.136 168.128 166.781 169.257 162.489C170.48 158.198 171.656 153.842 172.785 149.421C173.725 146.17 174.619 142.659 175.465 138.888C176.312 135.118 177.676 131.931 179.558 129.331C180.875 127.38 182.285 126.21 183.79 125.82C185.39 125.43 186.847 125.624 188.164 126.405C189.576 127.055 190.798 128.225 191.833 129.916C192.962 131.606 193.761 133.557 194.231 135.767C194.796 138.759 195.455 142.14 196.207 145.91C196.96 149.681 197.618 153.062 198.182 156.053C199.217 161.515 200.158 166.91 201.004 172.242C201.851 177.444 202.651 182.775 203.403 188.236C204.72 197.208 205.849 206.116 206.79 214.958C207.824 223.67 208.718 232.513 209.47 241.485V242.851ZM262.65 247.142C260.016 249.872 257.429 251.758 254.89 252.798C252.444 253.968 249.622 254.619 246.424 254.748C241.626 255.008 237.346 254.228 233.583 252.408C229.821 250.718 226.622 248.117 223.989 244.606C221.449 241.095 219.568 236.739 218.345 231.537C217.122 226.206 216.699 220.095 217.075 213.202C217.263 210.342 217.593 207.547 218.063 204.815C218.627 202.085 219.238 199.42 219.897 196.819C220.65 193.958 221.684 190.902 223.001 187.652C224.412 184.4 225.823 181.604 227.234 179.263C232.314 170.682 238.663 164.505 246.282 160.734C247.599 160.084 249.387 159.499 251.645 158.979C253.902 158.458 256.16 158.263 258.417 158.394C260.769 158.394 262.98 158.783 265.049 159.563C267.212 160.344 268.811 161.709 269.846 163.66C270.692 165.22 271.304 166.585 271.681 167.755C272.057 168.926 272.245 170.162 272.245 171.462C272.339 172.763 272.339 174.192 272.245 175.753V181.214C272.245 184.855 272.197 188.432 272.104 191.942C272.104 195.323 272.151 198.769 272.245 202.279V206.961C272.245 208.781 272.292 210.732 272.386 212.813C272.48 214.893 272.574 216.908 272.668 218.859C272.856 220.68 273.091 222.176 273.374 223.345C287.006 237.027 273.513 265.754 262.65 247.142ZM249.104 230.563C250.139 229.652 251.315 228.676 252.632 227.636C253.949 226.466 251.597 229.066 252.632 227.636C251.785 220.743 254.795 209.952 254.607 203.059C254.513 196.168 254.56 189.212 254.748 182.19C250.516 183.23 246.706 185.765 243.32 189.797C239.933 193.827 237.581 198.573 236.264 204.035C235.7 206.246 235.23 208.521 234.854 210.862C234.477 213.202 234.336 215.478 234.43 217.688C234.524 220.68 235.089 223.216 236.124 225.295C237.158 227.246 238.381 228.742 239.792 229.782C241.297 230.823 242.849 231.408 244.449 231.537C246.142 231.668 247.694 231.343 249.104 230.563ZM290.783 188.236C290.783 188.757 290.831 188.626 290.924 187.846C291.019 186.936 290.971 185.376 290.783 183.164C289.278 181.995 288.102 180.499 287.256 178.678C286.409 176.858 285.892 174.908 285.704 172.827C285.61 170.747 285.892 168.796 286.55 166.975C287.303 165.025 288.478 163.4 290.078 162.099C292.241 160.408 294.593 160.084 297.133 161.124C299.767 162.164 302.024 163.725 303.906 165.805C306.257 163.335 308.703 161.255 311.243 159.563C313.782 157.874 316.369 156.767 319.003 156.247C321.637 155.598 324.318 155.662 327.046 156.443C329.774 157.223 332.455 158.848 335.089 161.319C336.406 162.489 337.628 163.985 338.757 165.805C339.886 167.495 340.591 169.446 340.873 171.656C341.344 174.908 341.156 177.769 340.309 180.239C339.463 182.579 338.287 184.335 336.782 185.505C335.277 186.545 333.584 186.871 331.702 186.481C329.821 185.96 328.033 184.531 326.34 182.19C325.775 181.67 325.352 181.279 325.071 181.019C324.882 180.629 324.412 180.174 323.659 179.654C322.154 179.134 320.649 179.263 319.144 180.043C317.733 180.824 316.322 181.93 314.911 183.36C313.594 184.66 312.324 186.156 311.102 187.846C309.973 189.406 308.938 190.837 307.997 192.138V241.875C307.997 243.825 307.715 245.712 307.151 247.532C306.304 250.523 304.94 252.603 303.059 253.773C301.272 254.944 299.437 255.269 297.556 254.748C295.769 254.228 294.169 252.928 292.759 250.847C291.442 248.767 290.783 246.101 290.783 242.851V188.236ZM382.45 223.541C384.801 221.46 387.012 220.549 389.081 220.809C391.244 221.069 392.985 222.11 394.301 223.93C395.713 225.621 396.465 227.962 396.559 230.952C396.747 233.813 396.042 236.869 394.443 240.12C393.408 242.331 391.903 244.345 389.928 246.166C388.046 247.987 386.212 249.417 384.425 250.458C380.286 253.059 376.1 254.228 371.867 253.968C367.634 253.708 363.684 252.278 360.015 249.678C356.44 247.077 353.336 243.501 350.702 238.95C348.068 234.268 346.282 228.872 345.341 222.76C343.459 211.057 343.836 199.809 346.47 189.017C347.504 185.116 348.726 181.344 350.138 177.703C351.643 174.063 353.43 170.747 355.499 167.755C357.569 164.765 359.873 162.164 362.414 159.954C364.953 157.614 367.728 156.053 370.738 155.273C372.808 154.753 375.442 154.817 378.64 155.467C381.838 155.987 384.942 157.093 387.953 158.783C391.056 160.474 393.737 162.684 395.995 165.416C398.347 168.146 399.664 171.396 399.946 175.168C400.134 177.249 399.946 179.198 399.381 181.019C398.817 182.71 398.017 184.14 396.983 185.311C395.948 186.481 394.725 187.326 393.314 187.846C391.997 188.236 390.633 188.172 389.223 187.652C387.529 187.001 386.165 186.156 385.13 185.116C384.19 183.945 382.92 182.45 381.321 180.63C380.568 180.369 379.863 179.979 379.205 179.459C378.546 178.809 377.84 178.549 377.087 178.678L373.278 179.263C372.62 179.783 372.009 180.239 371.444 180.63C370.88 181.019 370.315 181.41 369.751 181.799C366.553 186.221 364.2 191.162 362.695 196.624C361.19 201.954 360.814 207.741 361.567 213.983C362.037 218.014 362.931 221.329 364.248 223.93C365.659 226.531 367.257 228.351 369.045 229.392C370.927 230.303 372.949 230.367 375.112 229.587C377.37 228.807 379.581 227.051 381.744 224.321L382.45 223.541Z"
      fill="#0F0F0F" />
    <g id="Ki">
      <path
        d="M184.279 385.999C185.953 384.179 186.969 382.015 187.328 379.51V378.315C187.089 372.509 186.909 366.758 186.79 361.066C186.67 355.259 186.611 349.453 186.611 343.647C187.208 343.419 187.866 343.192 188.583 342.964C189.3 342.622 189.958 342.337 190.556 342.11C196.175 347.803 201.734 353.438 207.234 359.017C212.733 364.595 218.292 370.288 223.911 376.094C224.508 376.664 225.225 377.461 226.063 378.486C226.899 379.397 227.737 380.364 228.573 381.388C229.529 382.413 230.486 383.438 231.442 384.463C232.519 385.374 233.535 386.17 234.491 386.853C236.643 388.334 238.795 389.017 240.947 388.903C243.218 388.789 245.192 388.106 246.864 386.853C248.658 385.601 249.973 384.007 250.81 382.071C251.646 380.022 251.767 377.859 251.168 375.582C250.81 374.103 249.494 372.053 247.223 369.434C245.071 366.816 242.621 364.197 239.871 361.578C237.24 358.846 234.73 356.398 232.339 354.235C229.948 351.958 228.394 350.477 227.677 349.794C224.569 346.721 221.52 343.647 218.531 340.572C215.542 337.499 212.554 334.424 209.564 331.351C211.836 329.415 214.227 327.365 216.737 325.203C219.249 323.04 221.699 320.819 224.09 318.542C226.481 316.151 228.752 313.76 230.904 311.37C233.056 308.865 235.721 306.391 237.275 304C237.873 303.09 242.082 297.804 242.775 297C243.467 296.196 245.229 293.656 245.775 293C246.438 292.348 248.095 289.468 248.644 288.694C249.309 287.927 249.929 286.966 250.501 285.821C252.022 283.166 252.611 280.671 252.306 278.285C252.121 275.786 251.292 273.8 249.838 272.305C248.388 270.692 246.476 269.702 244.085 269.361C241.695 269.019 239.124 269.551 236.33 271.014C234.934 271.687 233.259 273.094 231.228 275.335C229.201 277.456 227.098 279.846 224.917 282.506C222.737 285.166 220.633 287.824 218.641 290.434C216.651 293.043 210.222 301.294 209.386 302.318C205.918 306.189 202.331 309.662 198.626 312.736C195.039 315.695 191.094 318.371 186.79 320.763C186.79 315.298 186.85 309.946 186.969 304.709C187.089 299.358 189.011 292.073 189.15 285.204C189.184 284.347 188.951 283.381 188.463 282.179C188.107 281.018 187.681 279.936 187.188 278.94C186.093 276.296 184.669 273.832 182.903 272.017C181.265 270.271 179.531 269.291 177.683 269.4C175.966 269.495 174.209 270.673 172.418 272.861C170.63 274.909 169.087 277.781 167.818 280.985C166.835 283.371 166.049 287.439 165.668 290.998C165.409 294.439 165.211 298.048 165.091 301.806V311.882C165.211 314.956 165.27 316.664 165.27 317.005V352.698C165.27 353.381 165.211 355.259 165.091 358.334C165.091 361.294 165.151 364.539 165.27 368.068C165.391 371.598 165.569 375.013 165.808 378.315C166.047 381.503 166.466 383.723 167.064 384.975C168.26 387.593 169.933 389.245 172.085 389.928C174.237 390.611 176.389 390.611 178.54 389.928C180.692 389.245 182.605 387.935 184.279 385.999Z"
        fill="#0F0F0F" />
      <path
        d="M287.184 386.853C288.619 385.146 289.455 383.153 289.694 380.876V379.681V363.286C289.694 357.821 289.635 352.357 289.515 346.892C289.396 343.134 289.336 339.321 289.336 335.45V323.836V315.81C289.336 313.533 288.38 311.256 286.467 308.978C285.032 307.043 283.298 305.847 281.266 305.392C279.353 304.936 277.44 304.994 275.527 305.563C273.734 306.133 272.061 307.157 270.506 308.637C269.071 310.117 268.055 311.882 267.458 313.931C266.741 316.664 267.158 318.84 266.919 322.299C266.919 322.299 267.16 327.611 267.16 330.343C267.279 337.06 267.279 343.722 267.16 350.324C267.16 356.928 267.517 363.741 267.637 370.459C267.637 371.711 267.577 373.134 267.458 374.728C267.458 376.209 267.517 377.745 267.637 379.339C267.757 380.82 267.996 382.299 268.354 383.78C268.832 385.146 269.549 386.398 270.506 387.536C272.18 389.586 274.092 390.839 276.244 391.294C278.396 391.75 280.369 391.579 282.163 390.781C284.076 389.985 285.749 388.675 287.184 386.853Z"
        fill="#0F0F0F" />
    </g>
    <path id="Circle Attach"
      d="M277.091 299.652C284.898 299.652 291.226 292.9 291.226 284.571C291.226 276.242 284.898 269.49 277.091 269.49C269.285 269.49 262.957 276.242 262.957 284.571C262.957 292.9 269.285 299.652 277.091 299.652Z"
      fill="#0720F4" />
    <path id="Cicle Not"
      d="M379.4 215.552C385.258 215.552 390.008 210.485 390.008 204.234C390.008 197.984 385.258 192.917 379.4 192.917C373.542 192.917 368.793 197.984 368.793 204.234C368.793 210.485 373.542 215.552 379.4 215.552Z"
      stroke="#0720F4" stroke-width="8" />
    <line id="Horizontal Line" x1="309.775" y1="285" x2="440.775" y2="285" stroke="#0F0F0F" stroke-width="18" />
    <line id="Vertical Line" x1="354.775" y1="285" x2="354.775" y2="379" stroke="#0F0F0F" stroke-width="20" />
    <path id="Bottom rounding"
      d="M364.775 378.5C364.775 381.02 363.721 383.436 361.846 385.218C359.971 386.999 357.427 388 354.775 388C352.123 388 349.579 386.999 347.704 385.218C345.829 383.436 344.775 381.02 344.775 378.5L354.775 378.5H364.775Z"
      fill="#0F0F0F" />
    <g id="Circle">
      <path id="Contour"
        d="M441.775 276C441.775 323 411.207 367.549 373.991 398.151C336.775 428.754 289.433 444.301 241.308 441.725C193.184 439.148 147.774 418.635 114.043 384.234C80.3119 349.833 60.71 304.044 59.1067 255.905C57.5034 207.766 74.0151 160.775 105.383 124.209C136.75 87.6418 180.694 64.1558 228.541 58.3865C276.387 52.6172 324.66 64.9838 363.829 93.0453C402.999 121.107 441.775 165.5 441.775 212"
        stroke="#0720F4" stroke-width="15" />
      <line id="H line" x1="390.775" y1="204.5" x2="441.775" y2="204.5" stroke="#0720F4" stroke-width="15" />
    </g>
    <path id="Vector"
      d="M292.533 261.4C289.933 264 288.933 267.2 291.533 269.4C299.933 276.4 302.533 281.2 302.533 284.8C302.533 290 300.433 296.2 296.033 298.4C290.933 301 289.133 300.9 289.133 305.1C289.133 307.6 289.833 309.2 291.433 310.5C298.633 316.4 313.233 307 317.633 293.6C319.133 289.1 318.333 277.8 316.133 273.7C310.333 262.5 297.933 256 292.533 261.4Z"
      fill="#0F0F0F" />
  </g>
</svg>