<svg width="500" height="500" viewBox="0 0 500 500" fill="none" xmlns="http://www.w3.org/2000/svg">
    <path
        d="M258 248.06C257.641 251.698 256.686 254.757 255.135 257.236C253.582 259.882 251.792 261.701 249.762 262.693C247.732 263.686 245.643 263.686 243.494 262.693C241.344 261.866 239.554 259.717 238.121 256.244C236.927 253.434 236.211 250.54 235.972 247.564C235.853 244.423 235.674 241.198 235.435 237.891C235.196 234.253 234.898 231.112 234.54 228.467C234.301 225.655 234.003 222.432 233.644 218.794C232.57 208.873 231.376 199.117 230.063 189.528C228.749 179.771 227.257 170.017 225.586 160.262C223.198 168.528 220.929 176.713 218.781 184.814C216.632 192.917 214.483 201.101 212.333 209.368C210.662 215.487 208.99 221.687 207.319 227.97C205.766 234.089 203.916 240.04 201.767 245.828C201.051 247.812 199.857 249.465 198.186 250.788C196.514 251.945 194.723 252.606 192.812 252.773C190.902 252.937 189.112 252.606 187.44 251.78C185.769 250.788 184.515 249.217 183.679 247.068C178.546 233.343 173.472 219.702 168.457 206.145C163.443 192.587 158.428 178.946 153.414 165.221C152.817 173.654 152.28 182.169 151.803 190.767C151.325 199.201 150.787 207.633 150.19 216.065C150.071 218.71 149.952 221.935 149.832 225.737C149.713 229.541 149.474 233.427 149.116 237.396C148.877 241.198 148.519 244.918 148.041 248.556C147.683 252.029 147.027 254.757 146.071 256.741C144.639 260.048 142.729 262.197 140.341 263.189C138.072 264.181 135.804 264.263 133.535 263.437C131.386 262.61 129.536 260.874 127.984 258.228C126.551 255.749 125.894 252.524 126.014 248.556C126.253 241.777 126.67 235.081 127.267 228.467C127.864 221.853 128.402 215.156 128.879 208.376C129.834 193.661 130.789 179.028 131.745 164.477C132.819 149.928 133.834 135.211 134.789 120.329C135.028 116.032 135.625 112.063 136.58 108.426C137.654 104.788 139.863 102.225 143.206 100.737C144.519 100.076 145.892 99.8273 147.325 99.9919C148.758 100.158 150.071 100.737 151.265 101.729C153.891 104.044 155.921 107.267 157.354 111.402C158.906 115.37 160.338 119.173 161.652 122.81C163.92 128.763 166.129 134.798 168.278 140.915C170.427 146.868 172.576 152.82 174.725 158.773C177.352 166.379 179.978 173.903 182.605 181.343C185.351 188.618 188.157 195.976 191.022 203.416C191.738 200.936 192.395 198.455 192.992 195.976C193.708 193.496 194.424 191.015 195.141 188.536C196.455 184.237 197.649 179.938 198.723 175.638C199.917 171.173 201.11 166.792 202.304 162.493C203.976 156.871 205.528 151.333 206.96 145.875C208.513 140.42 210.005 134.88 211.438 129.258C212.632 125.125 213.766 120.66 214.84 115.866C215.915 111.071 217.646 107.019 220.034 103.713C221.706 101.232 223.496 99.745 225.406 99.2482C227.436 98.7529 229.286 98.9998 230.958 99.9919C232.749 100.819 234.301 102.307 235.615 104.457C237.047 106.606 238.062 109.087 238.658 111.897C239.375 115.701 240.211 120 241.166 124.794C242.121 129.589 242.957 133.888 243.673 137.692C244.987 144.636 246.181 151.497 247.255 158.277C248.33 164.891 249.344 171.67 250.299 178.615C251.971 190.023 253.404 201.349 254.598 212.593C255.91 223.671 257.045 234.915 258 246.323V248.06Z"
        fill="#0F0F0F" />
    <path
        d="M225.946 388.749C225.559 392.015 224.465 394.836 222.663 397.21C220.86 399.734 218.8 401.442 216.483 402.332C214.166 403.223 211.848 403.223 209.531 402.332C207.214 401.442 205.413 399.288 204.125 395.875C203.481 394.242 203.03 391.347 202.773 387.19C202.515 382.886 202.323 378.433 202.194 373.83C202.065 369.229 202 364.998 202 361.138C202.129 357.13 202.194 354.681 202.194 353.79V307.252C202.194 306.807 202.129 304.579 202 300.572V287.434C202.129 282.535 202.343 277.829 202.621 273.342C203.031 268.702 203.878 263.398 204.937 260.287C206.303 256.11 207.965 252.365 209.89 249.694C211.819 246.841 213.711 245.305 215.56 245.182C217.55 245.039 219.417 246.317 221.181 248.593C223.082 250.96 224.616 254.173 225.795 257.62C226.326 258.919 226.785 260.33 227.168 261.843C227.694 263.411 227.944 264.67 227.908 265.787C227.758 274.744 225.688 284.242 225.559 291.219C225.431 298.048 225.367 305.025 225.367 312.151C230.002 309.033 234.249 305.544 238.112 301.686C242.102 297.677 245.964 293.149 249.698 288.102C250.599 286.767 257.522 276.009 259.665 272.607C261.81 269.205 264.075 265.739 266.423 262.27C268.772 258.802 271.036 255.686 273.219 252.92C275.406 249.999 277.21 248.163 278.713 247.286C281.721 245.379 284.49 244.685 287.064 245.131C289.639 245.575 291.697 246.866 293.259 248.969C294.825 250.919 295.717 253.508 295.916 256.767C296.244 259.877 295.61 263.13 293.972 266.593C293.357 268.085 292.689 269.338 291.973 270.339C291.382 271.348 289.714 274.649 289 275.5C288.412 276.355 285.745 280.451 285 281.5C284.254 282.549 280.644 288.814 280 290C278.327 293.118 275.188 296.638 272.87 299.904C270.553 303.021 268.108 306.138 265.533 309.256C262.958 312.225 260.319 315.12 257.615 317.94C254.912 320.76 252.337 323.432 249.891 325.956C253.11 329.964 256.328 333.973 259.547 337.98C262.765 341.989 266.048 345.996 269.395 350.004C270.168 350.895 271.841 352.825 274.415 355.794C276.99 358.614 279.693 361.806 282.525 365.369C285.487 368.783 288.126 372.198 290.443 375.611C292.889 379.026 294.306 381.699 294.691 383.628C295.335 386.597 295.206 389.417 294.306 392.089C293.404 394.613 291.988 396.691 290.057 398.324C288.255 399.957 286.13 400.848 283.685 400.996C281.367 401.145 279.05 400.254 276.733 398.324C275.703 397.433 274.609 396.394 273.45 395.207C272.42 393.87 271.39 392.535 270.36 391.198C269.459 389.863 268.557 388.601 267.657 387.414C266.755 386.077 265.983 385.038 265.339 384.295C259.289 376.725 253.303 369.303 247.381 362.029C241.459 354.754 235.473 347.407 229.421 339.985C228.778 340.281 228.07 340.652 227.297 341.098C226.525 341.395 225.817 341.692 225.173 341.989C225.173 349.559 225.238 357.13 225.367 364.701C225.495 372.122 225.688 379.62 225.946 387.19V388.749Z"
        fill="#0F0F0F" />
    <path
        d="M307.5 352C322.688 352 335 339.688 335 324.5C335 309.313 322.688 297 307.5 297C292.312 297 280 309.313 280 324.5C280 339.688 292.312 352 307.5 352Z"
        fill="#0720F4" />
    <path
        d="M305.5 222C322.345 222 336 207.226 336 189C336 170.775 322.345 156 305.5 156C288.655 156 275 170.775 275 189C275 207.226 288.655 222 305.5 222Z"
        stroke="#0720F4" stroke-width="30" />
    <path d="M355 329L453.756 329" stroke="#0F0F0F" stroke-width="30" />
    <path
        d="M456.5 200C456.5 147.748 415.251 96.316 372.597 69.2699C329.943 42.2239 279.097 31.1357 229.055 37.967C179.013 44.7983 133 69.1087 99.1554 106.598C65.3109 144.087 45.8164 192.338 44.1207 242.816C42.425 293.293 58.6374 342.744 89.8897 382.42C121.142 422.096 165.42 449.439 214.891 459.613C264.362 469.788 315.837 462.137 360.21 438.014C404.583 413.892 456.5 361.699 456.5 314"
        stroke="#0720F4" stroke-width="30" />
    <line x1="335" y1="185" x2="454.003" y2="185" stroke="#0720F4" stroke-width="30" />
    <path
        d="M327.879 281.405C323.631 285.986 323.631 291.484 327.879 295.361C341.603 307.696 344.217 316.296 344.217 322.64C344.217 331.803 342.246 343.186 335.057 347.063C326.725 351.645 324.057 352.605 324.057 360.006C324.057 364.412 323.467 365.638 326.081 367.929C337.845 378.325 361.698 361.761 368.887 338.147C371.338 330.217 370.031 310.305 366.436 303.08C356.96 283.343 336.701 271.889 327.879 281.405Z"
        fill="#0F0F0F" />
</svg>